<svg width="80" height="80" viewBox="0 0 80 80" fill="none" xmlns="http://www.w3.org/2000/svg">
<path fill-rule="evenodd" clip-rule="evenodd" d="M4.67725 40C4.67725 30.6319 8.39873 21.6474 15.023 15.0231C21.6473 8.39885 30.6318 4.67737 39.9999 4.67737C49.3681 4.67737 58.3525 8.39885 64.9768 15.0231C71.6011 21.6474 75.3226 30.6319 75.3226 40C75.3226 49.3682 71.6011 58.3526 64.9768 64.9769C58.3525 71.6012 49.3681 75.3227 39.9999 75.3227C30.6318 75.3227 21.6473 71.6012 15.023 64.9769C8.39873 58.3526 4.67725 49.3682 4.67725 40ZM39.9999 9.74403C34.1355 9.74424 28.3975 11.4487 23.484 14.6502C18.5705 17.8516 14.6933 22.412 12.324 27.7766C9.95478 33.1411 9.19563 39.0786 10.1389 44.8667C11.0822 50.6548 13.6873 56.044 17.6372 60.3787C20.0352 56.6227 23.3413 53.5317 27.25 51.3914C31.1586 49.2511 35.5437 48.1306 39.9999 48.1334C44.4563 48.1301 48.8415 49.2504 52.7502 51.3907C56.6589 53.5311 59.9649 56.6223 62.3626 60.3787C66.3125 56.044 68.9176 50.6548 69.8609 44.8667C70.8042 39.0786 70.045 33.1411 67.6758 27.7766C65.3066 22.412 61.4294 17.8516 56.5159 14.6502C51.6024 11.4487 45.8644 9.74424 39.9999 9.74403ZM58.5706 63.888C56.6833 60.6353 53.9742 57.9358 50.7149 56.06C47.4556 54.1841 43.7605 53.1979 39.9999 53.2C36.2393 53.1979 32.5442 54.1841 29.2849 56.06C26.0256 57.9358 23.3165 60.6353 21.4292 63.888C26.7347 68.0249 33.2723 70.2667 39.9999 70.256C46.9972 70.256 53.4399 67.8774 58.5706 63.888ZM27.4666 34.6934C27.4666 31.3693 28.7871 28.1814 31.1375 25.831C33.488 23.4805 36.6759 22.16 39.9999 22.16C43.324 22.16 46.5119 23.4805 48.8623 25.831C51.2128 28.1814 52.5332 31.3693 52.5332 34.6934C52.5332 38.0174 51.2128 41.2053 48.8623 43.5558C46.5119 45.9062 43.324 47.2267 39.9999 47.2267C36.6759 47.2267 33.488 45.9062 31.1375 43.5558C28.7871 41.2053 27.4666 38.0174 27.4666 34.6934ZM39.9999 27.2267C39.0194 27.2267 38.0484 27.4198 37.1425 27.7951C36.2366 28.1703 35.4135 28.7203 34.7202 29.4136C34.0268 30.107 33.4768 30.9301 33.1016 31.836C32.7264 32.7419 32.5332 33.7128 32.5332 34.6934C32.5332 35.6739 32.7264 36.6448 33.1016 37.5507C33.4768 38.4566 34.0268 39.2798 34.7202 39.9731C35.4135 40.6664 36.2366 41.2164 37.1425 41.5917C38.0484 41.9669 39.0194 42.16 39.9999 42.16C41.9802 42.16 43.8794 41.3734 45.2796 39.9731C46.6799 38.5728 47.4666 36.6737 47.4666 34.6934C47.4666 32.7131 46.6799 30.8139 45.2796 29.4136C43.8794 28.0134 41.9802 27.2267 39.9999 27.2267Z" fill="black"/>
</svg>
